<svg xmlns="http://www.w3.org/2000/svg" xmlns:se="http://svg-edit.googlecode.com" xmlns:xlink="http://www.w3.org/1999/xlink" xmlns:dc="http://purl.org/dc/elements/1.1/" xmlns:cc="http://creativecommons.org/ns#" xmlns:rdf="http://www.w3.org/1999/02/22-rdf-syntax-ns#" xmlns:inkscape="http://www.inkscape.org/namespaces/inkscape" width="777" height="480" style="">
                                    <defs><radialGradient id="svg_14" spreadMethod="pad"><stop stop-color="#4a90d6" stop-opacity="1" offset="0"/><stop stop-color="#b56f29" stop-opacity="1" offset="1"/></radialGradient></defs><title>my vector image</title>
                                    <!-- Created with Vector Paint - http://www.vectorpaint.yaks.com/ https://chrome.google.com/webstore/detail/hnbpdiengicdefcjecjbnjnoifekhgdo -->
                                    <rect id="backgroundrect" width="100%" height="100%" x="0" y="0" fill="#FFFFFF" stroke="none"/>
                                <g style="" class="currentLayer"><title>Layer 1</title><rect fill="#0bd50b" stroke="#222222" stroke-width="2" stroke-linejoin="round" stroke-dashoffset="" fill-rule="nonzero" opacity="0.67" id="svg_1" x="45" y="60" width="407" height="316" style="color: rgb(0, 0, 0);" class="" transform=""/><rect fill="#ffffff" stroke="#1aeb1a" stroke-width="2" stroke-linejoin="round" stroke-dashoffset="" fill-rule="nonzero" opacity="0.53" id="svg_3" x="98" y="118" width="300" height="208" style="color: rgb(0, 0, 0);" class="" transform=""/><rect fill="#ffffff" stroke="#1aeb1a" stroke-width="2" stroke-linejoin="round" stroke-dashoffset="" fill-rule="nonzero" opacity="0.53" id="svg_5" x="208" y="109" width="1" height="9" style="color: rgb(0, 0, 0);"/><path fill="#6d6d6d" fill-opacity="1" stroke="#1aeb1a" stroke-opacity="1" stroke-width="2" stroke-dasharray="none" stroke-linejoin="round" stroke-linecap="butt" stroke-dashoffset="" fill-rule="nonzero" opacity="0.53" marker-start="" marker-mid="" marker-end="" d="M146.59129571067345,161.04347894592865L157.02607853570353,181.04347936056968" id="svg_8"/><path fill="#242424" fill-opacity="1" stroke="#1aeb1a" stroke-opacity="1" stroke-width="2" stroke-dasharray="none" stroke-linejoin="round" stroke-linecap="butt" stroke-dashoffset="" fill-rule="nonzero" opacity="0.53" marker-start="" marker-mid="" marker-end="" d="M133.54781717938582,237.56521966281605L203.1130360129198,312.34782990886504" id="svg_10"/><path fill="#484848" fill-opacity="1" stroke="#1aeb1a" stroke-opacity="1" stroke-width="2" stroke-dasharray="none" stroke-linejoin="round" stroke-linecap="butt" stroke-dashoffset="" fill-rule="nonzero" opacity="0.53" marker-start="" marker-mid="" marker-end="" d="M553.5478258868471,341.913047913117L554.4173911222664,341.0434826776978" id="svg_12"/><path fill="url(#svg_14)" fill-opacity="1" stroke="#1aeb1a" stroke-opacity="1" stroke-width="2" stroke-dasharray="none" stroke-linejoin="round" stroke-linecap="butt" stroke-dashoffset="" fill-rule="nonzero" opacity="0.53" marker-start="" marker-mid="" marker-end="" d="M125.72173006061327,240.1739153690735L174.41738324408703,292.347829494224" id="svg_15"/><path fill="#000000" fill-opacity="1" stroke="#484848" stroke-opacity="1" stroke-width="2" stroke-dasharray="none" stroke-linejoin="round" stroke-linecap="butt" stroke-dashoffset="" fill-rule="nonzero" opacity="0.53" marker-start="" marker-mid="" marker-end="" d="M132.67825194396664,238.4347848982352L215.28694930878825,342.78261314853614" id="svg_17" class=""/><path fill="#000000" fill-opacity="1" stroke="#484848" stroke-opacity="1" stroke-width="2" stroke-dasharray="none" stroke-linejoin="round" stroke-linecap="butt" stroke-dashoffset="" fill-rule="nonzero" opacity="0.53" marker-start="" marker-mid="" marker-end="" d="M217.89564501504577,342.78261314853614L374.4173873904972,15.826084630926475" id="svg_20"/><path fill="#000000" fill-opacity="1" stroke="#484848" stroke-opacity="1" stroke-width="2" stroke-dasharray="none" stroke-linejoin="round" stroke-linecap="butt" stroke-dashoffset="" fill-rule="nonzero" opacity="0.53" marker-start="" marker-mid="" marker-end="" d="M 134.417 238.435 L 145.722 231.478" id="svg_22" class=""/><path fill="#000000" fill-opacity="1" stroke="#242424" stroke-opacity="1" stroke-width="2" stroke-dasharray="none" stroke-linejoin="round" stroke-linecap="butt" stroke-dashoffset="" fill-rule="nonzero" opacity="0.53" marker-start="" marker-mid="" marker-end="" d="M144.8521652398351,230.6086977794626L210.0695578962732,301.04348184841575" id="svg_2" class=""/><path fill="#000000" fill-opacity="1" stroke="#242424" stroke-opacity="1" stroke-width="2" stroke-dasharray="none" stroke-linejoin="round" stroke-linecap="butt" stroke-dashoffset="" fill-rule="nonzero" opacity="0.53" marker-start="" marker-mid="" marker-end="" d="M210.0695578962732,301.04348184841575L210.0695578962732,300.17391661299655" id="svg_6"/><path fill="#000000" fill-opacity="1" stroke="#242424" stroke-opacity="1" stroke-width="2" stroke-dasharray="none" stroke-linejoin="round" stroke-linecap="butt" stroke-dashoffset="" fill-rule="nonzero" opacity="0.53" marker-start="" marker-mid="" marker-end="" d="M206.5912969545965,295.8260904359007L346.59129985708364,14.956519395507298" id="svg_9" class=""/><path fill="#0bd50b" fill-opacity="1" stroke="#222222" stroke-opacity="1" stroke-width="2" stroke-dasharray="none" stroke-linejoin="round" stroke-linecap="butt" stroke-dashoffset="" fill-rule="nonzero" opacity="0.67" marker-start="" marker-mid="" marker-end="" d="M344.85216938624524,17.565215101764835L374.4173873904972,16.69564986634566" id="svg_16" class=""/><polyline fill="#000000" stroke="#000000" stroke-width="2" stroke-linejoin="round" stroke-dashoffset="" fill-rule="nonzero" opacity="0.53" marker-start="" marker-mid="" marker-end="" id="svg_21" points="142.24346953357758,238.4347848982352 143.11303476899676,238.4347848982352 142.24346953357758,238.4347848982352 142.24346953357758,238.4347848982352 142.24346953357758,238.4347848982352 141.3739042981584,239.30435013365434 141.3739042981584,239.30435013365434 140.50433906273923,239.30435013365434 140.50433906273923,239.30435013365434 140.50433906273923,239.30435013365434 140.50433906273923,239.30435013365434 140.50433906273923,239.30435013365434 140.50433906273923,239.30435013365434 141.3739042981584,239.30435013365434 141.3739042981584,239.30435013365434 141.3739042981584,238.4347848982352 141.3739042981584,238.4347848982352 142.24346953357758,238.4347848982352 142.24346953357758,238.4347848982352 142.24346953357758,239.30435013365434 142.24346953357758,240.1739153690735 142.24346953357758,240.1739153690735 141.3739042981584,240.1739153690735 141.3739042981584,241.0434806044927 141.3739042981584,241.0434806044927 141.3739042981584,241.0434806044927 140.50433906273923,241.91304583991192 140.50433906273923,241.91304583991192 141.3739042981584,241.91304583991192 141.3739042981584,241.91304583991192 142.24346953357758,241.0434806044927 142.24346953357758,241.0434806044927 142.24346953357758,240.1739153690735 142.24346953357758,240.1739153690735 143.11303476899676,240.1739153690735 143.11303476899676,240.1739153690735 143.11303476899676,240.1739153690735 143.98260000441593,240.1739153690735 143.98260000441593,240.1739153690735 143.98260000441593,240.1739153690735 143.98260000441593,240.1739153690735 143.98260000441593,241.0434806044927 143.98260000441593,241.91304583991192 143.11303476899676,242.78261107533103 143.11303476899676,242.78261107533103 143.11303476899676,242.78261107533103 143.11303476899676,243.65217631075026 143.11303476899676,243.65217631075026 143.11303476899676,243.65217631075026 143.98260000441593,243.65217631075026 143.98260000441593,243.65217631075026 144.8521652398351,243.65217631075026 144.8521652398351,243.65217631075026 145.72173047525428,242.78261107533103 145.72173047525428,242.78261107533103 146.59129571067345,242.78261107533103 146.59129571067345,242.78261107533103 146.59129571067345,242.78261107533103 146.59129571067345,242.78261107533103 146.59129571067345,243.65217631075026 146.59129571067345,243.65217631075026 146.59129571067345,243.65217631075026 145.72173047525428,244.52174154616938 145.72173047525428,244.52174154616938 145.72173047525428,245.39130678158858 144.8521652398351,245.39130678158858 145.72173047525428,245.39130678158858 146.59129571067345,244.52174154616938 146.59129571067345,244.52174154616938 147.46086094609262,243.65217631075026 148.3304261815118,243.65217631075026 148.3304261815118,242.78261107533103 149.19999141693097,242.78261107533103 150.06955665235014,242.78261107533103 150.06955665235014,242.78261107533103 150.93912188776932,242.78261107533103 150.93912188776932,242.78261107533103 150.93912188776932,242.78261107533103 150.93912188776932,244.52174154616938 150.06955665235014,244.52174154616938 150.06955665235014,245.39130678158858 150.06955665235014,245.39130678158858 149.19999141693097,246.2608720170077 148.3304261815118,247.13043725242693 148.3304261815118,247.13043725242693 148.3304261815118,248.00000248784605 147.46086094609262,248.00000248784605 147.46086094609262,248.00000248784605 147.46086094609262,248.00000248784605 147.46086094609262,248.00000248784605 147.46086094609262,248.00000248784605 148.3304261815118,248.00000248784605 148.3304261815118,247.13043725242693 148.3304261815118,247.13043725242693 148.3304261815118,247.13043725242693 149.19999141693097,247.13043725242693 149.19999141693097,247.13043725242693 149.19999141693097,247.13043725242693 149.19999141693097,247.13043725242693 149.19999141693097,248.00000248784605 148.3304261815118,248.00000248784605 148.3304261815118,248.86956772326528 147.46086094609262,249.73913295868445 147.46086094609262,249.73913295868445 147.46086094609262,249.73913295868445 147.46086094609262,250.60869819410362 147.46086094609262,250.60869819410362 147.46086094609262,250.60869819410362 148.3304261815118,249.73913295868445 148.3304261815118,249.73913295868445 149.19999141693097,248.86956772326528 150.06955665235014,248.86956772326528 150.06955665235014,248.86956772326528 150.06955665235014,248.86956772326528 150.93912188776932,248.86956772326528 150.93912188776932,248.86956772326528 150.93912188776932,249.73913295868445 150.06955665235014,249.73913295868445 150.06955665235014,250.60869819410362 150.06955665235014,251.47826342952277 150.06955665235014,252.34782866494194 150.06955665235014,252.34782866494194 150.06955665235014,252.34782866494194 150.06955665235014,253.21739390036112 150.06955665235014,253.21739390036112 150.93912188776932,253.21739390036112 151.8086871231885,253.21739390036112 153.54781759402684,253.21739390036112 154.417382829446,253.21739390036112 156.15651330028436,253.21739390036112 158.76520900654188,253.21739390036112 160.50433947738026,253.21739390036112 161.37390471279943,253.21739390036112 162.2434699482186,253.21739390036112 163.11303518363778,253.21739390036112 162.2434699482186,253.21739390036112 162.2434699482186,254.08695913578035 162.2434699482186,254.08695913578035 162.2434699482186,254.95652437119946 161.37390471279943,254.95652437119946 161.37390471279943,254.95652437119946 161.37390471279943,255.8260896066187 161.37390471279943,255.8260896066187 161.37390471279943,255.8260896066187 160.50433947738026,256.6956548420378 160.50433947738026,256.6956548420378 160.50433947738026,256.6956548420378 160.50433947738026,256.6956548420378 161.37390471279943,256.6956548420378 161.37390471279943,256.6956548420378 161.37390471279943,256.6956548420378 162.2434699482186,256.6956548420378 162.2434699482186,256.6956548420378 162.2434699482186,256.6956548420378 162.2434699482186,256.6956548420378 162.2434699482186,257.565220077457 161.37390471279943,257.565220077457 161.37390471279943,258.4347853128762 161.37390471279943,258.4347853128762 161.37390471279943,258.4347853128762 160.50433947738026,259.30435054829536 161.37390471279943,259.30435054829536 161.37390471279943,258.4347853128762 161.37390471279943,258.4347853128762 161.37390471279943,259.30435054829536 161.37390471279943,259.30435054829536 161.37390471279943,260.17391578371456 161.37390471279943,261.0434810191337 160.50433947738026,261.0434810191337 159.63477424196105,261.9130462545529 159.63477424196105,261.9130462545529 159.63477424196105,261.9130462545529 159.63477424196105,262.78261148997206 159.63477424196105,262.78261148997206 159.63477424196105,262.78261148997206 160.50433947738026,261.9130462545529 161.37390471279943,261.9130462545529 161.37390471279943,261.9130462545529 161.37390471279943,261.9130462545529 162.2434699482186,261.9130462545529 163.11303518363778,261.0434810191337 163.11303518363778,261.9130462545529 163.11303518363778,261.9130462545529 163.11303518363778,261.9130462545529 162.2434699482186,262.78261148997206 162.2434699482186,262.78261148997206 162.2434699482186,262.78261148997206 161.37390471279943,263.65217672539126 161.37390471279943,264.5217419608104 161.37390471279943,264.5217419608104 160.50433947738026,264.5217419608104 160.50433947738026,264.5217419608104 161.37390471279943,264.5217419608104 162.2434699482186,264.5217419608104 162.2434699482186,264.5217419608104 162.2434699482186,263.65217672539126 163.11303518363778,263.65217672539126 163.98260041905695,263.65217672539126 163.98260041905695,263.65217672539126 163.98260041905695,263.65217672539126 163.98260041905695,264.5217419608104 163.98260041905695,264.5217419608104 163.98260041905695,264.5217419608104 163.98260041905695,265.3913071962296 163.98260041905695,266.26087243164875 163.11303518363778,266.26087243164875 163.11303518363778,266.26087243164875 162.2434699482186,267.13043766706795 162.2434699482186,267.13043766706795 163.11303518363778,267.13043766706795 163.98260041905695,267.13043766706795 163.98260041905695,267.13043766706795 163.98260041905695,267.13043766706795 165.7217308898953,267.13043766706795 165.7217308898953,267.13043766706795 166.59129612531447,267.13043766706795 167.46086136073365,267.13043766706795 167.46086136073365,267.13043766706795 167.46086136073365,268.0000029024871 166.59129612531447,268.8695681379063 166.59129612531447,268.8695681379063 166.59129612531447,268.8695681379063 166.59129612531447,269.73913337332544 166.59129612531447,270.60869860874465 165.7217308898953,270.60869860874465 165.7217308898953,270.60869860874465 165.7217308898953,271.4782638441638 165.7217308898953,271.4782638441638 165.7217308898953,271.4782638441638 168.33042659615282,271.4782638441638 169.199991831572,271.4782638441638 170.93912230241034,271.4782638441638 170.93912230241034,271.4782638441638 171.8086875378295,271.4782638441638 172.6782527732487,271.4782638441638 172.6782527732487,271.4782638441638 172.6782527732487,271.4782638441638 172.6782527732487,272.347829079583 172.6782527732487,272.347829079583 172.6782527732487,273.21739431500214 172.6782527732487,273.21739431500214 172.6782527732487,273.21739431500214 171.8086875378295,274.08695955042134 171.8086875378295,274.08695955042134 171.8086875378295,274.08695955042134 171.8086875378295,274.9565247858405 171.8086875378295,274.9565247858405 171.8086875378295,274.9565247858405 172.6782527732487,274.08695955042134 173.54781800866786,274.08695955042134 174.41738324408703,274.08695955042134 175.2869484795062,274.08695955042134 175.2869484795062,274.08695955042134 176.15651371492538,274.08695955042134 177.02607895034456,274.08695955042134 177.02607895034456,274.08695955042134 177.02607895034456,274.08695955042134 177.02607895034456,274.08695955042134 177.02607895034456,274.9565247858405 177.02607895034456,274.9565247858405 177.02607895034456,274.9565247858405 177.02607895034456,275.8260900212597 177.02607895034456,276.69565525667883 177.02607895034456,276.69565525667883 177.02607895034456,276.69565525667883 176.15651371492538,277.56522049209804 175.2869484795062,278.4347857275172 175.2869484795062,278.4347857275172 175.2869484795062,278.4347857275172 174.41738324408703,279.3043509629364 174.41738324408703,280.1739161983555 174.41738324408703,279.3043509629364 175.2869484795062,279.3043509629364 176.15651371492538,279.3043509629364 177.02607895034456,278.4347857275172 178.7652094211829,278.4347857275172 179.63477465660208,278.4347857275172 179.63477465660208,279.3043509629364 180.50433989202125,279.3043509629364 180.50433989202125,279.3043509629364 180.50433989202125,279.3043509629364 180.50433989202125,280.1739161983555 179.63477465660208,281.04348143377473 179.63477465660208,281.04348143377473 179.63477465660208,281.04348143377473 179.63477465660208,281.9130466691939 178.7652094211829,281.9130466691939 177.89564418576373,281.9130466691939 177.89564418576373,282.7826119046131 177.89564418576373,282.7826119046131 177.89564418576373,283.6521771400323 177.89564418576373,282.7826119046131 178.7652094211829,282.7826119046131 178.7652094211829,282.7826119046131 179.63477465660208,281.9130466691939 182.2434703628596,281.9130466691939 183.11303559827877,281.9130466691939 183.98260083369794,282.7826119046131 186.5912965399555,282.7826119046131 187.46086177537467,282.7826119046131 188.33042701079384,283.6521771400323 188.33042701079384,283.6521771400323 188.33042701079384,284.5217423754514 188.33042701079384,284.5217423754514 188.33042701079384,284.5217423754514 188.33042701079384,285.3913076108706 188.33042701079384,286.2608728462898 187.46086177537467,286.2608728462898 186.5912965399555,287.130438081709 186.5912965399555,288.0000033171281 185.72173130453632,288.8695685525473 185.72173130453632,289.73913378796647 184.85216606911715,289.73913378796647 183.98260083369794,290.60869902338567 183.11303559827877,291.4782642588048 183.11303559827877,292.347829494224 183.11303559827877,292.347829494224 183.98260083369794,292.347829494224 183.98260083369794,292.347829494224 183.98260083369794,292.347829494224 184.85216606911715,292.347829494224 185.72173130453632,292.347829494224 185.72173130453632,292.347829494224 185.72173130453632,292.347829494224 185.72173130453632,292.347829494224 185.72173130453632,292.347829494224 185.72173130453632,293.21739472964316 184.85216606911715,293.21739472964316 184.85216606911715,293.21739472964316 183.98260083369794,294.08695996506236 183.11303559827877,294.9565252004815 183.11303559827877,294.9565252004815 183.11303559827877,294.9565252004815 183.11303559827877,295.8260904359007 183.11303559827877,295.8260904359007 183.11303559827877,294.9565252004815 183.98260083369794,294.9565252004815 184.85216606911715,294.9565252004815 185.72173130453632,294.9565252004815 186.5912965399555,294.08695996506236 186.5912965399555,294.08695996506236 190.0695574816322,294.08695996506236 195.28694889414723,294.08695996506236 197.89564460040475,294.08695996506236 201.37390554208145,294.08695996506236 202.24347077750062,294.08695996506236 203.1130360129198,294.08695996506236 202.24347077750062,294.9565252004815 202.24347077750062,294.9565252004815 202.24347077750062,295.8260904359007 201.37390554208145,295.8260904359007 201.37390554208145,295.8260904359007 200.50434030666227,296.69565567131986 199.6347750712431,297.56522090673906 199.6347750712431,297.56522090673906 199.6347750712431,298.4347861421582 198.76520983582392,298.4347861421582 197.89564460040475,298.4347861421582 197.89564460040475,299.3043513775774 197.89564460040475,300.17391661299655 197.02607936498558,300.17391661299655 197.89564460040475,300.17391661299655 197.89564460040475,299.3043513775774 197.89564460040475,299.3043513775774 198.76520983582392,299.3043513775774 198.76520983582392,298.4347861421582 199.6347750712431,298.4347861421582 199.6347750712431,299.3043513775774 199.6347750712431,299.3043513775774 198.76520983582392,299.3043513775774 198.76520983582392,300.17391661299655 197.89564460040475,301.04348184841575 197.02607936498558,301.04348184841575 197.02607936498558,301.9130470838349 197.02607936498558,302.7826123192541 196.1565141295664,302.7826123192541 196.1565141295664,303.65217755467324 195.28694889414723,304.52174279009245 195.28694889414723,304.52174279009245 195.28694889414723,304.52174279009245 196.1565141295664,303.65217755467324 197.02607936498558,303.65217755467324 197.89564460040475,303.65217755467324 197.89564460040475,303.65217755467324 198.76520983582392,303.65217755467324 198.76520983582392,303.65217755467324 198.76520983582392,303.65217755467324 198.76520983582392,304.52174279009245 198.76520983582392,305.3913080255116 198.76520983582392,306.2608732609308 198.76520983582392,306.2608732609308 198.76520983582392,307.13043849634994 197.89564460040475,307.13043849634994 197.89564460040475,307.13043849634994 197.89564460040475,308.00000373176914 197.89564460040475,308.86956896718834 197.89564460040475,308.86956896718834 197.89564460040475,308.86956896718834 205.7217317191773,309.7391342026075 206.5912969545965,309.7391342026075 207.46086219001566,309.7391342026075 208.33042742543483,309.7391342026075 209.199992660854,309.7391342026075 209.199992660854,309.7391342026075 209.199992660854,310.6086994380267 209.199992660854,310.6086994380267 209.199992660854,311.47826467344584 208.33042742543483,311.47826467344584 208.33042742543483,312.34782990886504 207.46086219001566,312.34782990886504 207.46086219001566,313.2173951442842 207.46086219001566,313.2173951442842 207.46086219001566,314.0869603797034 206.5912969545965,314.0869603797034 207.46086219001566,314.0869603797034 207.46086219001566,313.2173951442842 208.33042742543483,313.2173951442842 208.33042742543483,313.2173951442842 209.199992660854,312.34782990886504 209.199992660854,312.34782990886504 209.199992660854,312.34782990886504 210.0695578962732,312.34782990886504 210.0695578962732,313.2173951442842 210.0695578962732,313.2173951442842 210.0695578962732,314.0869603797034 209.199992660854,314.95652561512253 209.199992660854,315.82609085054173 209.199992660854,316.6956560859609 209.199992660854,316.6956560859609 209.199992660854,317.5652213213801 208.33042742543483,318.4347865567992 208.33042742543483,319.3043517922184 208.33042742543483,319.3043517922184 208.33042742543483,319.3043517922184 208.33042742543483,319.3043517922184 208.33042742543483,319.3043517922184 210.93912313169238,318.4347865567992 211.80868836711156,318.4347865567992 212.67825360253073,317.5652213213801 214.41738407336908,317.5652213213801 215.28694930878825,317.5652213213801 216.15651454420743,317.5652213213801 217.0260797796266,317.5652213213801 217.0260797796266,318.4347865567992 216.15651454420743,319.3043517922184 216.15651454420743,320.1739170276376 215.28694930878825,321.0434822630568 215.28694930878825,321.9130474984759 215.28694930878825,321.9130474984759 215.28694930878825,322.7826127338951 215.28694930878825,322.7826127338951 215.28694930878825,323.65217796931427 215.28694930878825,323.65217796931427 215.28694930878825,323.65217796931427 215.28694930878825,322.7826127338951 216.15651454420743,322.7826127338951 217.0260797796266,321.9130474984759 217.0260797796266,321.9130474984759 217.89564501504577,321.0434822630568 217.89564501504577,320.1739170276376 218.76521025046495,320.1739170276376 219.63477548588412,319.3043517922184 219.63477548588412,319.3043517922184 218.76521025046495,319.3043517922184 218.76521025046495,320.1739170276376 217.89564501504577,321.0434822630568 217.89564501504577,321.0434822630568 217.0260797796266,321.9130474984759 217.0260797796266,321.9130474984759 216.15651454420743,322.7826127338951 216.15651454420743,323.65217796931427 216.15651454420743,323.65217796931427 215.28694930878825,324.52174320473347 215.28694930878825,324.52174320473347 215.28694930878825,324.52174320473347 215.28694930878825,325.3913084401526 215.28694930878825,326.2608736755718 215.28694930878825,327.13043891099096 215.28694930878825,328.00000414641016 215.28694930878825,328.00000414641016 215.28694930878825,328.00000414641016 215.28694930878825,328.8695693818293 215.28694930878825,328.8695693818293 215.28694930878825,329.7391346172485 215.28694930878825,329.7391346172485 215.28694930878825,330.60869985266766 215.28694930878825,330.60869985266766 215.28694930878825,331.47826508808686 215.28694930878825,331.47826508808686 215.28694930878825,331.47826508808686 214.41738407336908,332.34783032350606 214.41738407336908,332.34783032350606 214.41738407336908,333.2173955589252 214.41738407336908,333.2173955589252 214.41738407336908,333.2173955589252 214.41738407336908,334.0869607943444 214.41738407336908,334.0869607943444 214.41738407336908,334.0869607943444 214.41738407336908,334.95652602976355 214.41738407336908,334.95652602976355 214.41738407336908,334.95652602976355 " style="color: rgb(0, 0, 0);"/><polyline fill="#000000" stroke="#000000" stroke-width="2" stroke-linejoin="round" stroke-dashoffset="" fill-rule="nonzero" opacity="0.53" marker-start="" marker-mid="" marker-end="" id="svg_23" points="345.72173462166444,25.391302220537398 345.72173462166444,25.391302220537398 345.72173462166444,25.391302220537398 345.72173462166444,26.26086745595657 345.72173462166444,26.26086745595657 345.72173462166444,26.26086745595657 345.72173462166444,27.130432691375745 345.72173462166444,27.99999792679492 345.72173462166444,28.86956316221409 345.72173462166444,28.86956316221409 346.59129985708364,28.86956316221409 346.59129985708364,29.739128397633277 346.59129985708364,29.739128397633277 346.59129985708364,29.739128397633277 347.4608650925028,29.739128397633277 347.4608650925028,29.739128397633277 347.4608650925028,29.739128397633277 347.4608650925028,29.739128397633277 347.4608650925028,29.739128397633277 348.330430327922,30.608693633052454 348.330430327922,31.47825886847163 348.330430327922,31.47825886847163 348.330430327922,31.47825886847163 348.330430327922,32.3478241038908 348.330430327922,33.217389339309975 348.330430327922,33.217389339309975 348.330430327922,33.217389339309975 347.4608650925028,34.08695457472915 347.4608650925028,34.08695457472915 347.4608650925028,34.95651981014832 346.59129985708364,34.95651981014832 346.59129985708364,34.95651981014832 346.59129985708364,35.826085045567496 345.72173462166444,35.826085045567496 345.72173462166444,36.69565028098667 344.85216938624524,36.69565028098667 344.85216938624524,37.56521551640584 344.85216938624524,38.434780751825016 343.9826041508261,39.30434598724419 343.1130389154069,39.30434598724419 343.1130389154069,40.173911222663364 343.1130389154069,41.04347645808254 342.24347367998774,41.91304169350171 342.24347367998774,42.782606928920885 341.37390844456854,42.782606928920885 341.37390844456854,44.52173739975923 341.37390844456854,45.391302635178405 340.5043432091494,46.26086787059758 340.5043432091494,47.13043310601675 340.5043432091494,47.999998341435955 340.5043432091494,47.999998341435955 340.5043432091494,48.86956357685513 340.5043432091494,48.86956357685513 339.6347779737302,49.7391288122743 339.6347779737302,50.608694047693476 339.6347779737302,51.47825928311265 338.76521273831105,52.34782451853182 338.76521273831105,53.217389753951 337.89564750289185,54.08695498937017 337.89564750289185,54.08695498937017 337.89564750289185,54.956520224789344 337.89564750289185,54.956520224789344 337.0260822674727,54.956520224789344 337.0260822674727,54.956520224789344 337.0260822674727,55.82608546020852 336.1565170320535,55.82608546020852 336.1565170320535,55.82608546020852 335.28695179663436,56.69565069562769 334.41738656121515,57.56521593104686 334.41738656121515,57.56521593104686 334.41738656121515,56.69565069562769 335.28695179663436,56.69565069562769 335.28695179663436,56.69565069562769 336.1565170320535,56.69565069562769 336.1565170320535,56.69565069562769 337.0260822674727,57.56521593104686 337.0260822674727,57.56521593104686 337.0260822674727,57.56521593104686 337.0260822674727,57.56521593104686 337.89564750289185,57.56521593104686 338.76521273831105,58.434781166466045 338.76521273831105,58.434781166466045 338.76521273831105,58.434781166466045 339.6347779737302,59.30434640188521 339.6347779737302,59.30434640188521 339.6347779737302,59.30434640188521 340.5043432091494,60.173911637304386 340.5043432091494,60.173911637304386 340.5043432091494,60.173911637304386 340.5043432091494,61.043476872723566 340.5043432091494,61.043476872723566 340.5043432091494,61.043476872723566 340.5043432091494,61.043476872723566 340.5043432091494,61.043476872723566 340.5043432091494,61.91304210814273 340.5043432091494,61.91304210814273 340.5043432091494,61.91304210814273 340.5043432091494,62.78260734356191 340.5043432091494,62.78260734356191 340.5043432091494,62.78260734356191 340.5043432091494,62.78260734356191 340.5043432091494,63.65217257898107 340.5043432091494,63.65217257898107 340.5043432091494,63.65217257898107 339.6347779737302,64.52173781440025 339.6347779737302,64.52173781440025 339.6347779737302,64.52173781440025 339.6347779737302,65.39130304981943 339.6347779737302,65.39130304981943 339.6347779737302,66.2608682852386 338.76521273831105,66.2608682852386 338.76521273831105,67.13043352065777 337.89564750289185,67.99999875607695 337.89564750289185,68.86956399149612 337.0260822674727,68.86956399149612 337.0260822674727,68.86956399149612 336.1565170320535,69.7391292269153 336.1565170320535,70.60869446233447 336.1565170320535,71.47825969775364 336.1565170320535,71.47825969775364 335.28695179663436,72.34782493317284 335.28695179663436,73.21739016859202 335.28695179663436,74.08695540401119 335.28695179663436,74.08695540401119 335.28695179663436,74.08695540401119 334.41738656121515,74.08695540401119 333.547821325796,74.95652063943037 333.547821325796,75.82608587484954 332.6782560903768,75.82608587484954 331.80869085495766,76.69565111026871 331.80869085495766,77.56521634568789 331.80869085495766,77.56521634568789 330.93912561953846,78.43478158110706 330.93912561953846,78.43478158110706 330.0695603841193,78.43478158110706 330.0695603841193,78.43478158110706 329.1999951487001,79.30434681652623 329.1999951487001,79.30434681652623 329.1999951487001,80.17391205194541 328.33042991328097,80.17391205194541 328.33042991328097,80.17391205194541 327.46086467786176,81.04347728736458 326.5912994424426,81.91304252278375 325.7217342070234,82.78260775820293 325.7217342070234,82.78260775820293 324.85216897160427,83.6521729936221 323.98260373618507,83.6521729936221 323.98260373618507,84.52173822904128 323.1130385007659,84.52173822904128 323.1130385007659,84.52173822904128 323.1130385007659,84.52173822904128 322.2434732653467,85.39130346446045 322.2434732653467,85.39130346446045 322.2434732653467,85.39130346446045 321.3739080299276,86.26086869987962 320.5043427945084,86.26086869987962 320.5043427945084,87.1304339352988 320.5043427945084,87.1304339352988 319.6347775590892,87.1304339352988 319.6347775590892,87.1304339352988 318.76521232367,87.99999917071797 318.76521232367,87.99999917071797 318.76521232367,87.99999917071797 317.8956470882508,88.86956440613714 317.8956470882508,89.73912964155632 317.8956470882508,89.73912964155632 317.0260818528317,89.73912964155632 317.0260818528317,90.60869487697549 316.1565166174125,90.60869487697549 316.1565166174125,91.47826011239466 315.28695138199333,91.47826011239466 315.28695138199333,92.34782534781384 315.28695138199333,93.21739058323301 314.41738614657413,94.08695581865219 314.41738614657413,94.08695581865219 313.547820911155,94.95652105407136 313.547820911155,95.82608628949053 312.6782556757358,95.82608628949053 312.6782556757358,95.82608628949053 312.6782556757358,95.82608628949053 311.80869044031664,96.6956515249097 310.93912520489744,97.56521676032891 310.93912520489744,98.43478199574808 310.0695599694783,98.43478199574808 310.0695599694783,99.30434723116726 309.1999947340591,99.30434723116726 309.1999947340591,100.17391246658643 309.1999947340591,101.0434777020056 308.33042949863994,101.0434777020056 308.33042949863994,101.0434777020056 308.33042949863994,101.91304293742478 308.33042949863994,101.91304293742478 308.33042949863994,101.91304293742478 308.33042949863994,102.78260817284395 308.33042949863994,102.78260817284395 308.33042949863994,103.65217340826312 308.33042949863994,103.65217340826312 308.33042949863994,104.5217386436823 307.46086426322074,105.39130387910147 307.46086426322074,105.39130387910147 306.5912990278016,106.26086911452064 306.5912990278016,107.13043434993982 306.5912990278016,107.99999958535899 306.5912990278016,107.99999958535899 306.5912990278016,107.99999958535899 306.5912990278016,108.86956482077817 306.5912990278016,109.73913005619734 306.5912990278016,109.73913005619734 306.5912990278016,109.73913005619734 306.5912990278016,110.60869529161651 306.5912990278016,110.60869529161651 306.5912990278016,111.4782605270357 306.5912990278016,111.4782605270357 306.5912990278016,112.34782576245486 306.5912990278016,112.34782576245486 306.5912990278016,112.34782576245486 306.5912990278016,113.21739099787403 306.5912990278016,113.21739099787403 306.5912990278016,113.21739099787403 306.5912990278016,114.08695623329321 306.5912990278016,114.08695623329321 306.5912990278016,114.08695623329321 306.5912990278016,114.08695623329321 306.5912990278016,114.08695623329321 306.5912990278016,114.95652146871238 306.5912990278016,114.95652146871238 306.5912990278016,114.95652146871238 306.5912990278016,114.95652146871238 307.46086426322074,114.95652146871238 307.46086426322074,115.82608670413154 307.46086426322074,115.82608670413154 307.46086426322074,115.82608670413154 307.46086426322074,116.69565193955074 307.46086426322074,116.69565193955074 308.33042949863994,116.69565193955074 308.33042949863994,116.69565193955074 308.33042949863994,116.69565193955074 308.33042949863994,117.56521717496992 308.33042949863994,117.56521717496992 308.33042949863994,118.43478241038908 309.1999947340591,118.43478241038908 309.1999947340591,119.30434764580825 309.1999947340591,120.17391288122742 310.0695599694783,121.0434781166466 310.0695599694783,121.91304335206581 310.93912520489744,121.91304335206581 310.93912520489744,121.91304335206581 310.93912520489744,122.78260858748499 310.93912520489744,122.78260858748499 311.80869044031664,123.65217382290415 311.80869044031664,123.65217382290415 311.80869044031664,123.65217382290415 311.80869044031664,124.52173905832332 311.80869044031664,124.52173905832332 311.80869044031664,125.3913042937425 311.80869044031664,125.3913042937425 311.80869044031664,126.26086952916167 311.80869044031664,126.26086952916167 311.80869044031664,126.26086952916167 311.80869044031664,127.13043476458083 311.80869044031664,127.13043476458083 311.80869044031664,127.13043476458083 311.80869044031664,127.13043476458083 311.80869044031664,128 311.80869044031664,128 311.80869044031664,128 310.93912520489744,128 310.93912520489744,128 310.93912520489744,128.8695652354192 310.93912520489744,128.8695652354192 310.0695599694783,128.8695652354192 310.0695599694783,129.73913047083835 310.0695599694783,129.73913047083835 310.0695599694783,130.60869570625755 309.1999947340591,130.60869570625755 309.1999947340591,130.60869570625755 309.1999947340591,131.4782609416767 308.33042949863994,131.4782609416767 308.33042949863994,131.4782609416767 308.33042949863994,131.4782609416767 308.33042949863994,132.3478261770959 308.33042949863994,132.3478261770959 308.33042949863994,132.3478261770959 308.33042949863994,133.21739141251504 308.33042949863994,134.08695664793424 308.33042949863994,134.08695664793424 308.33042949863994,134.08695664793424 308.33042949863994,134.9565218833534 308.33042949863994,135.8260871187726 308.33042949863994,135.8260871187726 308.33042949863994,135.8260871187726 308.33042949863994,136.69565235419174 308.33042949863994,137.56521758961094 308.33042949863994,138.43478282503008 307.46086426322074,139.30434806044929 307.46086426322074,141.91304376670678 306.5912990278016,143.65217423754513 306.5912990278016,144.52173947296433 305.7217337923824,145.39130470838347 305.7217337923824,146.26086994380267 305.7217337923824,147.13043517922188 305.7217337923824,148.00000041464102 305.7217337923824,148.86956565006022 304.85216855696325,148.86956565006022 304.85216855696325,148.86956565006022 304.85216855696325,149.73913088547937 304.85216855696325,149.73913088547937 304.85216855696325,149.73913088547937 304.85216855696325,149.73913088547937 303.98260332154405,150.60869612089857 303.98260332154405,150.60869612089857 303.1130380861249,150.60869612089857 303.1130380861249,151.47826135631772 303.1130380861249,151.47826135631772 303.1130380861249,151.47826135631772 303.1130380861249,151.47826135631772 303.1130380861249,151.47826135631772 303.1130380861249,152.34782659173692 302.2434728507057,152.34782659173692 302.2434728507057,152.34782659173692 302.2434728507057,152.34782659173692 302.2434728507057,152.34782659173692 301.37390761528656,153.21739182715606 300.50434237986735,154.08695706257527 300.50434237986735,154.08695706257527 299.6347771444482,154.08695706257527 299.6347771444482,154.08695706257527 298.765211909029,154.9565222979944 297.89564667360986,154.9565222979944 297.02608143819066,154.9565222979944 296.1565162027715,154.9565222979944 295.2869509673523,154.9565222979944 294.4173857319331,155.8260875334136 293.54782049651396,155.8260875334136 293.54782049651396,155.8260875334136 293.54782049651396,155.8260875334136 292.67825526109476,155.8260875334136 291.8086900256756,155.8260875334136 291.8086900256756,155.8260875334136 291.8086900256756,155.8260875334136 290.9391247902564,155.8260875334136 290.9391247902564,155.8260875334136 290.9391247902564,155.8260875334136 290.06955955483727,155.8260875334136 289.19999431941807,155.8260875334136 288.3304290839989,155.8260875334136 287.4608638485797,155.8260875334136 287.4608638485797,155.8260875334136 286.5912986131606,155.8260875334136 286.5912986131606,155.8260875334136 285.7217333777414,155.8260875334136 285.7217333777414,155.8260875334136 285.7217333777414,155.8260875334136 284.8521681423222,155.8260875334136 284.8521681423222,155.8260875334136 284.8521681423222,156.69565276883276 283.982602906903,156.69565276883276 283.982602906903,156.69565276883276 283.982602906903,156.69565276883276 283.1130376714839,156.69565276883276 283.1130376714839,156.69565276883276 282.2434724360647,157.56521800425196 281.37390720064553,157.56521800425196 281.37390720064553,158.4347832396711 280.50434196522633,158.4347832396711 279.6347767298072,158.4347832396711 279.6347767298072,158.4347832396711 279.6347767298072,158.4347832396711 278.765211494388,158.4347832396711 278.765211494388,159.3043484750903 278.765211494388,160.17391371050945 278.765211494388,161.04347894592865 278.765211494388,161.9130441813478 278.765211494388,162.782609416767 278.765211494388,163.65217465218615 279.6347767298072,163.65217465218615 279.6347767298072,164.52173988760535 279.6347767298072,165.3913051230245 280.50434196522633,165.3913051230245 280.50434196522633,165.3913051230245 280.50434196522633,166.2608703584437 280.50434196522633,167.13043559386284 280.50434196522633,167.13043559386284 281.37390720064553,168.00000082928204 281.37390720064553,168.00000082928204 281.37390720064553,168.8695660647012 281.37390720064553,169.7391313001204 282.2434724360647,169.7391313001204 282.2434724360647,170.60869653553954 282.2434724360647,170.60869653553954 282.2434724360647,171.47826177095874 282.2434724360647,171.47826177095874 282.2434724360647,171.47826177095874 282.2434724360647,171.47826177095874 282.2434724360647,172.34782700637788 282.2434724360647,172.34782700637788 282.2434724360647,172.34782700637788 283.1130376714839,172.34782700637788 283.1130376714839,173.21739224179709 283.1130376714839,173.21739224179709 283.1130376714839,173.21739224179709 283.1130376714839,174.08695747721623 283.1130376714839,174.08695747721623 283.1130376714839,174.08695747721623 283.1130376714839,174.95652271263543 283.1130376714839,174.95652271263543 283.982602906903,174.95652271263543 283.982602906903,174.95652271263543 283.982602906903,175.82608794805458 283.982602906903,175.82608794805458 283.982602906903,175.82608794805458 283.982602906903,175.82608794805458 283.982602906903,176.69565318347378 284.8521681423222,176.69565318347378 284.8521681423222,176.69565318347378 284.8521681423222,176.69565318347378 284.8521681423222,177.56521841889293 284.8521681423222,178.43478365431213 285.7217333777414,178.43478365431213 285.7217333777414,179.30434888973127 285.7217333777414,179.30434888973127 285.7217333777414,179.30434888973127 283.982602906903,180.17391412515047 283.982602906903,180.17391412515047 283.1130376714839,180.17391412515047 282.2434724360647,181.04347936056962 282.2434724360647,181.04347936056962 282.2434724360647,181.04347936056962 281.37390720064553,181.04347936056962 281.37390720064553,181.04347936056962 281.37390720064553,181.04347936056962 281.37390720064553,181.04347936056962 280.50434196522633,191.47826218559976 280.50434196522633,202.782610246049 279.6347767298072,203.6521754814682 279.6347767298072,204.52174071688734 278.765211494388,205.39130595230654 278.765211494388,205.39130595230654 278.765211494388,206.26087118772568 278.765211494388,206.26087118772568 278.765211494388,207.1304364231449 277.89564625896884,207.1304364231449 277.89564625896884,207.1304364231449 277.89564625896884,207.1304364231449 277.89564625896884,207.1304364231449 277.02608102354964,207.1304364231449 277.02608102354964,207.1304364231449 277.02608102354964,208.00000165856403 277.02608102354964,208.00000165856403 276.1565157881305,208.00000165856403 276.1565157881305,208.00000165856403 276.1565157881305,208.00000165856403 276.1565157881305,208.00000165856403 275.2869505527113,208.86956689398323 274.41738531729214,208.86956689398323 273.54782008187294,208.86956689398323 271.8086896110346,210.60869736482158 270.9391243756154,210.60869736482158 269.19999390477705,211.47826260024078 269.19999390477705,211.47826260024078 267.4608634339387,211.47826260024078 266.59129819851955,212.34782783565993 266.59129819851955,212.34782783565993 265.72173296310035,213.21739307107913 264.8521677276812,213.21739307107913 264.8521677276812,214.08695830649827 263.982602492262,214.08695830649827 263.982602492262,214.08695830649827 263.11303725684286,214.08695830649827 263.11303725684286,214.08695830649827 263.11303725684286,214.95652354191748 262.24347202142366,214.95652354191748 261.3739067860045,214.95652354191748 261.3739067860045,215.82608877733662 261.3739067860045,215.82608877733662 260.5043415505853,215.82608877733662 259.63477631516616,216.69565401275582 259.63477631516616,216.69565401275582 259.63477631516616,216.69565401275582 258.76521107974696,216.69565401275582 258.76521107974696,217.56521924817497 258.76521107974696,217.56521924817497 257.8956458443278,221.04348018985166 257.8956458443278,221.04348018985166 257.8956458443278,221.91304542527087 257.0260806089086,221.91304542527087 256.15651537348947,222.78261066069 255.28695013807027,222.78261066069 255.28695013807027,223.65217589610918 254.41738490265115,224.52174113152836 254.41738490265115,225.3913063669476 254.41738490265115,225.3913063669476 254.41738490265115,225.3913063669476 253.54781966723192,225.3913063669476 253.54781966723192,226.2608716023667 253.54781966723192,226.2608716023667 253.54781966723192,226.2608716023667 253.54781966723192,227.13043683778594 252.67825443181275,228.00000207320505 252.67825443181275,228.00000207320505 252.67825443181275,228.86956730862426 252.67825443181275,228.86956730862426 252.67825443181275,228.86956730862426 252.67825443181275,228.86956730862426 252.67825443181275,230.6086977794626 252.67825443181275,236.69565442739685 252.67825443181275,237.56521966281602 251.80868919639357,238.4347848982352 251.80868919639357,238.4347848982352 251.80868919639357,240.1739153690735 251.80868919639357,241.0434806044927 251.80868919639357,241.0434806044927 251.80868919639357,241.91304583991192 250.93912396097443,243.65217631075026 250.93912396097443,243.65217631075026 250.93912396097443,244.52174154616938 250.93912396097443,244.52174154616938 250.93912396097443,244.52174154616938 250.93912396097443,244.52174154616938 250.93912396097443,245.39130678158858 250.93912396097443,246.2608720170077 250.93912396097443,246.2608720170077 250.93912396097443,247.13043725242693 250.93912396097443,247.13043725242693 250.93912396097443,248.86956772326528 250.93912396097443,249.73913295868445 250.93912396097443,250.60869819410362 250.93912396097443,250.60869819410362 250.93912396097443,251.47826342952277 250.93912396097443,251.47826342952277 250.93912396097443,251.47826342952277 250.93912396097443,252.34782866494194 250.93912396097443,252.34782866494194 250.06955872555525,252.34782866494194 250.06955872555525,252.34782866494194 250.06955872555525,252.34782866494194 250.06955872555525,252.34782866494194 249.19999349013608,252.34782866494194 249.19999349013608,252.34782866494194 249.19999349013608,253.21739390036112 248.33042825471685,253.21739390036112 248.33042825471685,253.21739390036112 247.46086301929773,253.21739390036112 247.46086301929773,253.21739390036112 246.5912977838785,254.08695913578035 245.72173254845936,254.08695913578035 244.85216731304018,254.08695913578035 244.85216731304018,254.08695913578035 243.982602077621,254.08695913578035 243.982602077621,254.08695913578035 243.11303684220184,254.08695913578035 242.2434716067826,254.08695913578035 242.2434716067826,254.95652437119946 242.2434716067826,254.08695913578035 242.2434716067826,254.95652437119946 242.2434716067826,254.95652437119946 241.3739063713635,254.95652437119946 241.3739063713635,254.95652437119946 241.3739063713635,254.95652437119946 241.3739063713635,254.95652437119946 241.3739063713635,254.95652437119946 240.5043411359443,255.8260896066187 240.5043411359443,256.6956548420378 240.5043411359443,264.5217419608104 240.5043411359443,265.3913071962296 240.5043411359443,266.26087243164875 240.5043411359443,266.26087243164875 240.5043411359443,267.13043766706795 240.5043411359443,268.0000029024871 240.5043411359443,268.0000029024871 240.5043411359443,268.0000029024871 240.5043411359443,268.8695681379063 239.63477590052514,268.8695681379063 240.5043411359443,268.8695681379063 240.5043411359443,268.8695681379063 240.5043411359443,272.347829079583 240.5043411359443,274.08695955042134 240.5043411359443,274.08695955042134 240.5043411359443,274.08695955042134 240.5043411359443,275.8260900212597 239.63477590052514,276.69565525667883 239.63477590052514,276.69565525667883 238.76521066510594,277.56522049209804 238.76521066510594,278.4347857275172 237.89564542968682,278.4347857275172 237.89564542968682,279.3043509629364 237.89564542968682,279.3043509629364 237.89564542968682,279.3043509629364 237.0260801942676,279.3043509629364 237.0260801942676,279.3043509629364 237.0260801942676,280.1739161983555 237.0260801942676,280.1739161983555 237.0260801942676,281.04348143377473 237.0260801942676,281.04348143377473 236.15651495884842,281.04348143377473 236.15651495884842,281.04348143377473 236.15651495884842,281.9130466691939 236.15651495884842,281.9130466691939 235.28694972342925,281.9130466691939 234.4173844880101,282.7826119046131 234.4173844880101,282.7826119046131 234.4173844880101,282.7826119046131 233.54781925259093,283.6521771400323 232.67825401717175,283.6521771400323 232.67825401717175,284.5217423754514 231.80868878175252,285.3913076108706 230.9391235463334,286.2608728462898 230.9391235463334,286.2608728462898 230.06955831091418,287.130438081709 230.06955831091418,287.130438081709 229.19999307549503,288.0000033171281 229.19999307549503,288.0000033171281 229.19999307549503,288.8695685525473 229.19999307549503,288.8695685525473 228.33042784007586,288.8695685525473 228.33042784007586,289.73913378796647 228.33042784007586,289.73913378796647 228.33042784007586,291.4782642588048 228.33042784007586,291.4782642588048 228.33042784007586,291.4782642588048 228.33042784007586,292.347829494224 228.33042784007586,292.347829494224 228.33042784007586,293.21739472964316 228.33042784007586,294.9565252004815 228.33042784007586,294.9565252004815 228.33042784007586,294.9565252004815 228.33042784007586,295.8260904359007 228.33042784007586,295.8260904359007 227.46086260465668,298.4347861421582 227.46086260465668,298.4347861421582 227.46086260465668,299.3043513775774 227.46086260465668,299.3043513775774 227.46086260465668,299.3043513775774 227.46086260465668,300.17391661299655 227.46086260465668,301.04348184841575 227.46086260465668,301.04348184841575 227.46086260465668,301.9130470838349 227.46086260465668,302.7826123192541 227.46086260465668,303.65217755467324 227.46086260465668,303.65217755467324 227.46086260465668,304.52174279009245 227.46086260465668,304.52174279009245 227.46086260465668,305.3913080255116 227.46086260465668,305.3913080255116 227.46086260465668,305.3913080255116 227.46086260465668,306.2608732609308 226.5912973692375,306.2608732609308 226.5912973692375,306.2608732609308 226.5912973692375,307.13043849634994 226.5912973692375,307.13043849634994 225.72173213381834,307.13043849634994 225.72173213381834,307.13043849634994 225.72173213381834,308.00000373176914 225.72173213381834,308.00000373176914 225.72173213381834,308.00000373176914 224.85216689839916,308.00000373176914 224.85216689839916,308.86956896718834 223.98260166298,308.86956896718834 223.98260166298,308.86956896718834 223.11303642756081,309.7391342026075 222.24347119214164,309.7391342026075 222.24347119214164,310.6086994380267 221.37390595672247,310.6086994380267 221.37390595672247,310.6086994380267 221.37390595672247,311.47826467344584 220.5043407213033,311.47826467344584 220.5043407213033,311.47826467344584 220.5043407213033,311.47826467344584 219.63477548588412,311.47826467344584 219.63477548588412,311.47826467344584 219.63477548588412,311.47826467344584 218.76521025046495,311.47826467344584 218.76521025046495,310.6086994380267 218.76521025046495,310.6086994380267 217.89564501504577,310.6086994380267 217.89564501504577,310.6086994380267 217.0260797796266,310.6086994380267 217.0260797796266,310.6086994380267 217.0260797796266,309.7391342026075 216.15651454420743,309.7391342026075 215.28694930878825,309.7391342026075 215.28694930878825,309.7391342026075 214.41738407336908,309.7391342026075 213.5478188379499,309.7391342026075 212.67825360253073,309.7391342026075 212.67825360253073,309.7391342026075 212.67825360253073,309.7391342026075 211.80868836711156,309.7391342026075 211.80868836711156,309.7391342026075 211.80868836711156,309.7391342026075 210.93912313169238,309.7391342026075 210.93912313169238,308.86956896718834 210.93912313169238,308.86956896718834 210.0695578962732,308.86956896718834 210.0695578962732,308.86956896718834 210.0695578962732,308.86956896718834 209.199992660854,308.86956896718834 209.199992660854,308.86956896718834 208.33042742543483,308.86956896718834 208.33042742543483,308.86956896718834 208.33042742543483,308.00000373176914 208.33042742543483,308.00000373176914 207.46086219001566,308.00000373176914 207.46086219001566,308.00000373176914 207.46086219001566,308.00000373176914 207.46086219001566,308.00000373176914 206.5912969545965,308.00000373176914 206.5912969545965,308.00000373176914 206.5912969545965,308.00000373176914 205.7217317191773,308.00000373176914 205.7217317191773,307.13043849634994 205.7217317191773,307.13043849634994 205.7217317191773,307.13043849634994 204.85216648375814,307.13043849634994 204.85216648375814,307.13043849634994 204.85216648375814,307.13043849634994 203.98260124833897,307.13043849634994 203.98260124833897,307.13043849634994 " style="color: rgb(0, 0, 0);" class="selected"/></g></svg>