<svg xmlns="http://www.w3.org/2000/svg" width="777" height="480">
                                    <title>my vector image</title>
                                    <!-- Created with Vector Paint - http://www.vectorpaint.yaks.com/ https://chrome.google.com/webstore/detail/hnbpdiengicdefcjecjbnjnoifekhgdo -->
                                    <rect id="backgroundrect" width="100%" height="100%" x="0" y="0" fill="#FFFFFF" stroke="none"/>
                                <g style="" class="currentLayer"><title>Layer 1</title><path fill="#990098" fill-opacity="1" stroke="#0404b8" stroke-opacity="1" stroke-width="2" stroke-dasharray="none" stroke-linejoin="round" stroke-linecap="butt" stroke-dashoffset="" fill-rule="nonzero" opacity="0.53" marker-start="" marker-mid="" marker-end="" d="M66,113 C66,98.6353591160221 77.41160220994475,87 91.5,87 C105.58839779005525,87 117,98.6353591160221 117,113 C117,127.3646408839779 105.58839779005525,139 91.5,139 C77.41160220994475,139 66,127.3646408839779 66,113 Z" id="svg_1"/><path fill="#990098" fill-opacity="1" stroke="#0404b8" stroke-opacity="1" stroke-width="2" stroke-dasharray="none" stroke-linejoin="round" stroke-linecap="butt" stroke-dashoffset="" fill-rule="nonzero" opacity="0.53" marker-start="" marker-mid="" marker-end="" d="M157,99.5 C157,99.22375690607734 158.79005524861878,99 161,99 C163.20994475138122,99 165,99.22375690607734 165,99.5 C165,99.77624309392266 163.20994475138122,100 161,100 C158.79005524861878,100 157,99.77624309392266 157,99.5 Z" id="svg_3"/><path fill="#990098" fill-opacity="1" stroke="#0404b8" stroke-opacity="1" stroke-width="2" stroke-dasharray="none" stroke-linejoin="round" stroke-linecap="butt" stroke-dashoffset="" fill-rule="nonzero" opacity="0.53" marker-start="" marker-mid="" marker-end="" d="M153,114.5 C153,100.96408839779005 163.06906077348066,90 175.5,90 C187.93093922651934,90 198,100.96408839779005 198,114.5 C198,128.03591160220995 187.93093922651934,139 175.5,139 C163.06906077348066,139 153,128.03591160220995 153,114.5 Z" id="svg_5"/><path fill="#990098" fill-opacity="1" stroke="#0404b8" stroke-opacity="1" stroke-width="2" stroke-dasharray="none" stroke-linejoin="round" stroke-linecap="butt" stroke-dashoffset="" fill-rule="nonzero" opacity="0.53" marker-start="" marker-mid="" marker-end="" d="M66,190 C66,176.7403314917127 77.85911602209944,166 92.5,166 C107.14088397790056,166 119,176.7403314917127 119,190 C119,203.2596685082873 107.14088397790056,214 92.5,214 C77.85911602209944,214 66,203.2596685082873 66,190 Z" id="svg_7"/><path fill="#990098" fill-opacity="1" stroke="#0404b8" stroke-opacity="1" stroke-width="2" stroke-dasharray="none" stroke-linejoin="round" stroke-linecap="butt" stroke-dashoffset="" fill-rule="nonzero" opacity="0.53" marker-start="" marker-mid="" marker-end="" d="M153,191 C153,178.292817679558 163.7403314917127,168 177,168 C190.2596685082873,168 201,178.292817679558 201,191 C201,203.707182320442 190.2596685082873,214 177,214 C163.7403314917127,214 153,203.707182320442 153,191 Z" id="svg_9"/><path fill="#990098" fill-opacity="1" stroke="#0404b8" stroke-opacity="1" stroke-width="2" stroke-dasharray="none" stroke-linejoin="round" stroke-linecap="butt" stroke-dashoffset="" fill-rule="nonzero" opacity="0.53" marker-start="" marker-mid="" marker-end="" d="M74,269.5 C74,255.96408839779005 84.06906077348066,245 96.5,245 C108.93093922651934,245 119,255.96408839779005 119,269.5 C119,283.0359116022099 108.93093922651934,294 96.5,294 C84.06906077348066,294 74,283.0359116022099 74,269.5 Z" id="svg_11"/><path fill="#990098" fill-opacity="1" stroke="#0404b8" stroke-opacity="1" stroke-width="2" stroke-dasharray="none" stroke-linejoin="round" stroke-linecap="butt" stroke-dashoffset="" fill-rule="nonzero" opacity="0.53" marker-start="" marker-mid="" marker-end="" d="M147,270 C147,256.7403314917127 158.1878453038674,246 172,246 C185.8121546961326,246 197,256.7403314917127 197,270 C197,283.2596685082873 185.8121546961326,294 172,294 C158.1878453038674,294 147,283.2596685082873 147,270 Z" id="svg_13"/><path fill="#990098" fill-opacity="1" stroke="#0404b8" stroke-opacity="1" stroke-width="2" stroke-dasharray="none" stroke-linejoin="round" stroke-linecap="butt" stroke-dashoffset="" fill-rule="nonzero" opacity="0.53" marker-start="" marker-mid="" marker-end="" d="M73,361 C73,346.0828729281768 85.30662983425414,334 100.5,334 C115.69337016574586,334 128,346.0828729281768 128,361 C128,375.9171270718232 115.69337016574586,388 100.5,388 C85.30662983425414,388 73,375.9171270718232 73,361 Z" id="svg_15"/><path fill="#990098" fill-opacity="1" stroke="#0404b8" stroke-opacity="1" stroke-width="2" stroke-dasharray="none" stroke-linejoin="round" stroke-linecap="butt" stroke-dashoffset="" fill-rule="nonzero" opacity="0.53" marker-start="" marker-mid="" marker-end="" d="M157,359.5 C157,345.41160220994476 166.3977900552486,334 178,334 C189.6022099447514,334 199,345.41160220994476 199,359.5 C199,373.58839779005524 189.6022099447514,385 178,385 C166.3977900552486,385 157,373.58839779005524 157,359.5 Z" id="svg_17"/></g></svg>
